<svg width="800" height="800" viewBox="0 0 512 512" xmlns="http://www.w3.org/2000/svg"><path d="M224 480v-50.902A177 177 0 0 0 256 432c10.928 0 21.623-.996 32-2.902V480c0 17.673-14.327 32-32 32s-32-14.327-32-32m162.108-37.324-37.181-37.18a177 177 0 0 0 47.339-43.171l35.096 35.096c12.497 12.497 12.497 32.758 0 45.255s-32.758 12.497-45.254 0M69.324 386.108l37.18-37.181a177 177 0 0 0 43.171 47.339l-35.096 35.096c-12.497 12.497-32.759 12.497-45.255 0s-12.497-32.758 0-45.254M256 384c70.692 0 128-57.308 128-128s-57.308-128-128-128-128 57.308-128 128 57.308 128 128 128m224-96h-50.902A177 177 0 0 0 432 256c0-10.928-.996-21.623-2.902-32H480c17.673 0 32 14.327 32 32 0 17.654-14.297 31.97-32 32m-397.098 0H32c-17.673 0-32-14.327-32-32s14.327-32 32-32h50.902A177 177 0 0 0 80 256c0 10.907.992 21.583 2.902 32m31.677-207.363 35.096 35.097a177 177 0 0 0-43.171 47.339l-37.18-37.181c-12.497-12.497-12.497-32.758 0-45.255s32.758-12.496 45.255 0m316.783 33.942-35.096 35.096a177 177 0 0 0-47.339-43.171l37.181-37.18c12.496-12.497 32.758-12.497 45.254 0 12.497 12.496 12.497 32.758 0 45.255M288 32c0-17.673-14.327-32-32-32s-32 14.327-32 32v50.902A177 177 0 0 1 256 80c10.928 0 21.623.996 32 2.902z"/></svg>